# xmcd
#
# Track frame offsets: 
#        150
#        12696
#        25563
#        38235
#        52998
#        63631
#        76209
#        87873
#        100399
#        130543
#        145202
#        157406
#        167186
#        183269
#        199008
#        211938
#
# Disc length: 2978 seconds
#
# Revision: 0
# Processed by: cddbd v1.5.2PL0 Copyright (c) Steve Scherf et al.
# Submitted via: ExactAudioCopy v0.90b4
#
DISCID=d80ba010
DTITLE=Jimmy Reed - Boss Man - The Best and Rarest of Jimmy Reed
DYEAR=1900
DGENRE=Blues
TTITLE0=Big Boss Man
TTITLE1=Meet Me In Your Hometown
TTITLE2=Go On To School
TTITLE3=If You Don't Want Me Baby
TTITLE4=Baby What You Want Me To Do
TTITLE5=My First Plea
TTITLE6=You're Something Else
TTITLE7=Honest I Do
TTITLE8=Cold Chills
TTITLE9=Shame, Shame, Shame
TTITLE10=Why Can't I Come In
TTITLE11=Poor Country Boy
TTITLE12=My Baby Told Me
TTITLE13=Just Can't Sleep At Night
TTITLE14=When I Woke Up This Morning
TTITLE15=I Got To Keep Rolling
EXTD=
EXTT0=
EXTT1=
EXTT2=
EXTT3=
EXTT4=
EXTT5=
EXTT6=
EXTT7=
EXTT8=
EXTT9=
EXTT10=
EXTT11=
EXTT12=
EXTT13=
EXTT14=
EXTT15=
PLAYORDER=
